<svg xmlns="http://www.w3.org/2000/svg" xmlns:xlink="http://www.w3.org/1999/xlink" viewBox="0,0,256,256" width="50px" height="50px">
<defs><clipPath id="clip-1"><path d="M0,256v-256h256v256zM89.66667,170.33333h77.33333c19.2,0 34.66667,-15.46667 34.66667,-34.66667c0,-12.26667 -6.4,-22.93333 -16.53333,-29.33333c-2.66667,-24 -22.93333,-42.66667 -47.46667,-42.66667c-13.86667,0 -26.66667,5.86667 -35.73333,16c-0.53333,0 -1.06667,0 -1.6,0c-13.86667,0 -26.13333,9.06667 -30.4,21.86667c-10.66667,6.4 -17.6,18.13333 -17.6,31.46667c0,20.8 16.53333,37.33333 37.33333,37.33333z" id="overlayBgMask" fill="none"></path></clipPath></defs><g clip-path="url(#clip-1)" fill="none" fill-rule="nonzero" stroke="none" stroke-width="1" stroke-linecap="butt" stroke-linejoin="miter" stroke-miterlimit="10" stroke-dasharray="" stroke-dashoffset="0" font-family="none" font-weight="none" font-size="none" text-anchor="none" style="mix-blend-mode: normal"><g transform="scale(5.12,5.12)" fill="#000000"><path d="M25,4c-12.68359,0 -23,8.97266 -23,20c0,6.1875 3.33594,12.06641 8.94922,15.83984c-0.13281,1.05078 -0.66406,3.60156 -2.76562,6.58594l-1.10547,1.56641l1.97656,0.00781c5.42969,0 9.10156,-3.32812 10.30859,-4.60547c1.83203,0.40234 3.72656,0.60547 5.63672,0.60547c12.68359,0 23,-8.97266 23,-20c0,-11.02734 -10.31641,-20 -23,-20z"></path></g></g><g fill="#000000" fill-rule="nonzero" stroke="none" stroke-width="1" stroke-linecap="butt" stroke-linejoin="miter" stroke-miterlimit="10" stroke-dasharray="" stroke-dashoffset="0" font-family="none" font-weight="none" font-size="none" text-anchor="none" style="mix-blend-mode: normal"><g transform="translate(63,74.33333) scale(5.33333,5.33333)" id="overlay"><path d="M19.5,16h-14.5c-2.8,0 -5,-2.2 -5,-5c0,-2 1.2,-3.8 3,-4.6c0.3,-1.9 2,-3.4 4,-3.4c0.4,0 0.8,0.1 1.1,0.2c1.3,-2 3.5,-3.2 5.9,-3.2c3.9,0 7,3.1 7,7c0,0.1 0,0.2 0,0.3c1.8,0.6 3,2.3 3,4.2c0,2.5 -2,4.5 -4.5,4.5z"></path></g></g>
</svg>