<svg xmlns="http://www.w3.org/2000/svg" xmlns:xlink="http://www.w3.org/1999/xlink" viewBox="0,0,256,256" width="30px" height="30px">
    <defs><clipPath id="clip-1"><path d="M0,256v-256h256v256zM89.66667,170.33333h77.33333c19.2,0 34.66667,-15.46667 34.66667,-34.66667c0,-12.26667 -6.4,-22.93333 -16.53333,-29.33333c-2.66667,-24 -22.93333,-42.66667 -47.46667,-42.66667c-13.86667,0 -26.66667,5.86667 -35.73333,16c-0.53333,0 -1.06667,0 -1.6,0c-13.86667,0 -26.13333,9.06667 -30.4,21.86667c-10.66667,6.4 -17.6,18.13333 -17.6,31.46667c0,20.8 16.53333,37.33333 37.33333,37.33333z" id="overlayBgMask" fill="none"></path></clipPath></defs><g clip-path="url(#clip-1)" fill="none" fill-rule="nonzero" stroke="none" stroke-width="1" stroke-linecap="butt" stroke-linejoin="miter" stroke-miterlimit="10" stroke-dasharray="" stroke-dashoffset="0" font-family="none" font-weight="none" font-size="none" text-anchor="none" style="mix-blend-mode: normal"><g transform="scale(5.12,5.12)" fill="#000000"><path d="M25,4.0625c-12.58594,0 -22.9375,8.86328 -22.9375,19.9375c0,6.42578 3.5625,12.09375 8.9375,15.71875c-0.00781,0.21484 0,0.54688 -0.28125,1.59375c-0.34766,1.29297 -1.03516,3.125 -2.46875,5.15625l-1.03125,1.4375l1.78125,0.03125c6.17578,0.02734 9.75391,-4.03125 10.3125,-4.6875c1.82422,0.40625 3.72266,0.6875 5.6875,0.6875c12.58203,0 22.9375,-8.86328 22.9375,-19.9375c0,-11.07422 -10.35547,-19.9375 -22.9375,-19.9375zM25,5.9375c11.71484,0 21.0625,8.15234 21.0625,18.0625c0,9.91016 -9.34766,18.0625 -21.0625,18.0625c-2.00391,0 -3.94922,-0.24219 -5.78125,-0.6875l-0.5625,-0.125l-0.375,0.46875c0,0 -2.89062,3.25781 -7.5,4.03125c0.83203,-1.49219 1.46484,-2.87891 1.75,-3.9375c0.39844,-1.48047 0.40625,-2.5 0.40625,-2.5v-0.5l-0.4375,-0.28125c-5.22656,-3.3125 -8.5625,-8.58984 -8.5625,-14.53125c0,-9.91016 9.34375,-18.0625 21.0625,-18.0625z"></path></g></g><g fill="#000000" fill-rule="nonzero" stroke="none" stroke-width="1" stroke-linecap="butt" stroke-linejoin="miter" stroke-miterlimit="10" stroke-dasharray="" stroke-dashoffset="0" font-family="none" font-weight="none" font-size="none" text-anchor="none" style="mix-blend-mode: normal"><g transform="translate(63,74.33333) scale(5.33333,5.33333)" id="overlay"><g id="Слой_2" font-family="Inter, apple-system, BlinkMacSystemFont, &quot;Helvetica Neue&quot;, &quot;Segoe UI&quot;, &quot;Fira Sans&quot;, Roboto, Oxygen, Ubuntu, &quot;Droid Sans&quot;, Arial, sans-serif" font-weight="400" font-size="16" text-anchor="start" visibility="hidden"></g><g id="Android_x5F_4" font-family="Inter, apple-system, BlinkMacSystemFont, &quot;Helvetica Neue&quot;, &quot;Segoe UI&quot;, &quot;Fira Sans&quot;, Roboto, Oxygen, Ubuntu, &quot;Droid Sans&quot;, Arial, sans-serif" font-weight="400" font-size="16" text-anchor="start" visibility="hidden"></g><g id="Android_x5F_5" font-family="Inter, apple-system, BlinkMacSystemFont, &quot;Helvetica Neue&quot;, &quot;Segoe UI&quot;, &quot;Fira Sans&quot;, Roboto, Oxygen, Ubuntu, &quot;Droid Sans&quot;, Arial, sans-serif" font-weight="400" font-size="16" text-anchor="start" visibility="hidden"></g><g id="Windows_x5F_8" font-family="Inter, apple-system, BlinkMacSystemFont, &quot;Helvetica Neue&quot;, &quot;Segoe UI&quot;, &quot;Fira Sans&quot;, Roboto, Oxygen, Ubuntu, &quot;Droid Sans&quot;, Arial, sans-serif" font-weight="400" font-size="16" text-anchor="start" visibility="hidden"></g><g id="Windows_x5F_10" font-family="Inter, apple-system, BlinkMacSystemFont, &quot;Helvetica Neue&quot;, &quot;Segoe UI&quot;, &quot;Fira Sans&quot;, Roboto, Oxygen, Ubuntu, &quot;Droid Sans&quot;, Arial, sans-serif" font-weight="400" font-size="16" text-anchor="start" visibility="hidden"></g><g id="Color" font-family="Inter, apple-system, BlinkMacSystemFont, &quot;Helvetica Neue&quot;, &quot;Segoe UI&quot;, &quot;Fira Sans&quot;, Roboto, Oxygen, Ubuntu, &quot;Droid Sans&quot;, Arial, sans-serif" font-weight="400" font-size="16" text-anchor="start" visibility="hidden"></g><g id="IOS" font-family="Inter, apple-system, BlinkMacSystemFont, &quot;Helvetica Neue&quot;, &quot;Segoe UI&quot;, &quot;Fira Sans&quot;, Roboto, Oxygen, Ubuntu, &quot;Droid Sans&quot;, Arial, sans-serif" font-weight="400" font-size="16" text-anchor="start" visibility="hidden"></g><g id="IOS_copy"><path d="M19.5,16h-14.5c-2.8,0 -5,-2.2 -5,-5c0,-2 1.2,-3.8 3,-4.6c0.3,-1.9 2,-3.4 4,-3.4c0.4,0 0.8,0.1 1.1,0.2c1.3,-2 3.5,-3.2 5.9,-3.2c3.9,0 7,3.1 7,7c0,0.1 0,0.2 0,0.3c1.8,0.6 3,2.3 3,4.2c0,2.5 -2,4.5 -4.5,4.5zM5,7v0v0.9l-0.7,0.2c-1.4,0.3 -2.3,1.5 -2.3,2.9c0,1.7 1.3,3 3,3h14.5c1.4,0 2.5,-1.1 2.5,-2.5c0,-1.3 -1,-2.3 -2.2,-2.5l-1,-0.1l0.2,-1c0,-0.3 0,-0.6 0,-0.9c0,-2.8 -2.2,-5 -5,-5c-1.9,0 -3.7,1.1 -4.5,2.9l-0.5,1l-1,-0.6c-0.3,-0.2 -0.6,-0.3 -1,-0.3c-1.1,0 -2,0.9 -2,2z"></path></g></g></g>
</svg>